# xmcd
#
# Track frame offsets:
#	150
#	14025
#	24737
#	40382
#	52603
#	65966
#	77506
#	90404
#	105916
#	118772
#
# Disc length: 1720 seconds
#
# Revision: 0
# Processed by: cddbd v1.4PL0 Copyright (c) Steve Scherf et al.
# Submitted via: dBpowerAMP V4.0
#
DISCID=7806b60a
DTITLE=Don Williams - Country Boy
DYEAR=1900
DGENRE=Country
TTITLE0=I'm Just a Country Boy
TTITLE1=Louisiana Saturday Night
TTITLE2=Overlookin' and Underthinkin'
TTITLE3=Sneakin' Around
TTITLE4=Look Around You
TTITLE5=I've Got a Winner in You
TTITLE6=Rake and Ramblin' Man
TTITLE7=Too Many Tears (To Make Love Strong)
TTITLE8=It's Gotta Be Magic
TTITLE9=Falling In Love
EXTD=Original LP Album titled Country Boy by Don WiIlliams
EXTT0=
EXTT1=
EXTT2=
EXTT3=
EXTT4=
EXTT5=
EXTT6=
EXTT7=
EXTT8=
EXTT9=
PLAYORDER=
